<svg width="393" height="157" viewBox="0 0 393 157" fill="none" xmlns="http://www.w3.org/2000/svg">
<path d="M0 26.7097C179.349 -79.4135 201.89 176.884 393 2.68181V129.829V231.948H0V129.829V26.7097Z" fill="#D9D9D9"/>
<path d="M0 26.7097C179.349 -79.4135 201.89 176.884 393 2.68181V129.829V231.948H0V129.829V26.7097Z" fill="#D9D9D9"/>
<path d="M0 26.7097C179.349 -79.4135 201.89 176.884 393 2.68181V129.829V231.948H0V129.829V26.7097Z" fill="#D9D9D9"/>
<path d="M0 26.7097C179.349 -79.4135 201.89 176.884 393 2.68181V129.829V231.948H0V129.829V26.7097Z" fill="#4195D3"/>
<path d="M0 70.7608C179.349 -35.3624 201.89 220.935 393 46.7329V166.872V277H0V174.882V70.7608Z" fill="#D9D9D9"/>
<path d="M0 70.7608C179.349 -35.3624 201.89 220.935 393 46.7329V166.872V277H0V174.882V70.7608Z" fill="#D9D9D9"/>
<path d="M0 70.7608C179.349 -35.3624 201.89 220.935 393 46.7329V166.872V277H0V174.882V70.7608Z" fill="#D9D9D9"/>
<path d="M0 70.7608C179.349 -35.3624 201.89 220.935 393 46.7329V166.872V277H0V174.882V70.7608Z" fill="#5F2466"/>
</svg>
