<?xml version="1.0" encoding="UTF-8"?>
<!DOCTYPE svg PUBLIC "-//W3C//DTD SVG 1.1//EN" "http://www.w3.org/Graphics/SVG/1.1/DTD/svg11.dtd">
<svg xmlns="http://www.w3.org/2000/svg" version="1.1" width="217px" height="232px" style="shape-rendering:geometricPrecision; text-rendering:geometricPrecision; image-rendering:optimizeQuality; fill-rule:evenodd; clip-rule:evenodd" xmlns:xlink="http://www.w3.org/1999/xlink">
<g><path style="opacity:1" fill="#f5f5f5" d="M -0.5,-0.5 C 71.8333,-0.5 144.167,-0.5 216.5,-0.5C 216.5,76.8333 216.5,154.167 216.5,231.5C 144.167,231.5 71.8333,231.5 -0.5,231.5C -0.5,154.167 -0.5,76.8333 -0.5,-0.5 Z"/></g>
<g><path style="opacity:1" fill="#4395d1" d="M 96.5,31.5 C 86.1667,41.1667 76.1667,51.1667 66.5,61.5C 66.5,81.8333 66.5,102.167 66.5,122.5C 50.2246,121.613 40.0579,113.28 36,97.5C 35.5,75.1692 35.3334,52.8358 35.5,30.5C 56.0069,30.1695 76.3402,30.5028 96.5,31.5 Z"/></g>
<g><path style="opacity:1" fill="#1078b5" d="M 96.5,31.5 C 96.5,41.5 96.5,51.5 96.5,61.5C 86.5,61.5 76.5,61.5 66.5,61.5C 76.1667,51.1667 86.1667,41.1667 96.5,31.5 Z"/></g>
<g><path style="opacity:1" fill="#38153a" d="M 66.5,61.5 C 76.5,61.5 86.5,61.5 96.5,61.5C 96.5,81.8333 96.5,102.167 96.5,122.5C 86.5,122.5 76.5,122.5 66.5,122.5C 66.5,102.167 66.5,81.8333 66.5,61.5 Z"/></g>
<g><path style="opacity:1" fill="#5e225e" d="M 96.5,61.5 C 115.129,63.462 125.462,73.7953 127.5,92.5C 125.019,110.649 114.685,120.649 96.5,122.5C 96.5,102.167 96.5,81.8333 96.5,61.5 Z"/></g>
<g><path style="opacity:1" fill="#5e235e" d="M 66.5,122.5 C 76.5,122.5 86.5,122.5 96.5,122.5C 86.8688,132.632 77.0355,142.632 67,152.5C 66.5002,142.506 66.3335,132.506 66.5,122.5 Z"/></g>
<g><path style="opacity:1" fill="#aaacad" d="M 145.5,164.5 C 141.029,163.911 137.029,164.577 133.5,166.5C 132.596,165.791 132.263,164.791 132.5,163.5C 137.032,163.182 141.366,163.515 145.5,164.5 Z"/></g>
<g><path style="opacity:1" fill="#dadbdb" d="M 157.5,164.5 C 159.265,163.539 161.265,163.205 163.5,163.5C 163.5,164.833 163.5,166.167 163.5,167.5C 165.167,167.5 166.833,167.5 168.5,167.5C 168.5,166.167 168.5,164.833 168.5,163.5C 169.833,163.5 171.167,163.5 172.5,163.5C 172.5,164.833 172.5,166.167 172.5,167.5C 175.385,167.194 178.052,167.527 180.5,168.5C 180.167,168.5 179.833,168.5 179.5,168.5C 177.167,168.5 174.833,168.5 172.5,168.5C 172.335,171.85 172.502,175.183 173,178.5C 173.49,177.207 173.657,175.873 173.5,174.5C 175.735,174.795 177.735,174.461 179.5,173.5C 180.5,173.5 181.5,173.5 182.5,173.5C 182.5,175.167 182.5,176.833 182.5,178.5C 181.167,178.5 179.833,178.5 178.5,178.5C 178.5,177.5 178.5,176.5 178.5,175.5C 177.167,175.5 175.833,175.5 174.5,175.5C 174.5,176.833 174.5,178.167 174.5,179.5C 173.5,179.5 172.5,179.5 171.5,179.5C 171.737,178.209 171.404,177.209 170.5,176.5C 171.438,169.762 168.771,167.429 162.5,169.5C 162.631,168.624 162.298,167.957 161.5,167.5C 160.583,168.127 159.583,168.461 158.5,168.5C 158.511,166.983 159.177,165.816 160.5,165C 159.552,164.517 158.552,164.351 157.5,164.5 Z"/></g>
<g><path style="opacity:1" fill="#4d5152" d="M 35.5,164.5 C 36.5,164.5 37.5,164.5 38.5,164.5C 38.3347,168.182 38.5014,171.848 39,175.5C 41,178.167 43,178.167 45,175.5C 45.1747,171.789 45.6747,168.122 46.5,164.5C 47.6609,168.795 47.8275,173.129 47,177.5C 42.982,180.439 39.3153,180.105 36,176.5C 35.5012,172.514 35.3345,168.514 35.5,164.5 Z"/></g>
<g><path style="opacity:1" fill="#4e5253" d="M 86.5,164.5 C 90.226,164.177 93.8927,164.511 97.5,165.5C 94.5719,166.484 91.5719,166.817 88.5,166.5C 88.5,167.833 88.5,169.167 88.5,170.5C 99.1667,171.167 99.1667,171.833 88.5,172.5C 88.5,173.833 88.5,175.167 88.5,176.5C 91.5,176.5 94.5,176.5 97.5,176.5C 97.5,177.5 97.5,178.5 97.5,179.5C 93.8333,179.5 90.1667,179.5 86.5,179.5C 86.5,174.5 86.5,169.5 86.5,164.5 Z"/></g>
<g><path style="opacity:1" fill="#525657" d="M 99.5,164.5 C 103.24,164.241 106.906,164.574 110.5,165.5C 111.904,168.403 111.571,171.07 109.5,173.5C 110.167,175.167 110.833,176.833 111.5,178.5C 111,178.833 110.5,179.167 110,179.5C 108.287,178.046 107.12,176.212 106.5,174C 105.207,173.51 103.873,173.343 102.5,173.5C 102.5,175.5 102.5,177.5 102.5,179.5C 101.5,179.5 100.5,179.5 99.5,179.5C 99.5,174.5 99.5,169.5 99.5,164.5 Z"/></g>
<g><path style="opacity:1" fill="#494d4e" d="M 128.5,164.5 C 129.809,166.571 130.475,169.071 130.5,172C 130.167,174.5 129.833,177 129.5,179.5C 128.506,174.544 128.173,169.544 128.5,164.5 Z"/></g>
<g><path style="opacity:1" fill="#535758" d="M 145.5,164.5 C 144.448,166.256 142.781,166.923 140.5,166.5C 140.5,170.833 140.5,175.167 140.5,179.5C 139.5,179.5 138.5,179.5 137.5,179.5C 137.5,175.167 137.5,170.833 137.5,166.5C 136.167,166.5 134.833,166.5 133.5,166.5C 137.029,164.577 141.029,163.911 145.5,164.5 Z"/></g>
<g><path style="opacity:1" fill="#e4e5e5" d="M 102.5,166.5 C 104.527,166.338 106.527,166.505 108.5,167C 109.925,168.714 109.592,170.047 107.5,171C 105.866,171.494 104.199,171.66 102.5,171.5C 102.5,169.833 102.5,168.167 102.5,166.5 Z"/></g>
<g><path style="opacity:1" fill="#545859" d="M 157.5,164.5 C 158.552,164.351 159.552,164.517 160.5,165C 159.177,165.816 158.511,166.983 158.5,168.5C 155.807,171.539 154.807,175.206 155.5,179.5C 154.5,179.5 153.5,179.5 152.5,179.5C 152.838,174.153 151.171,169.486 147.5,165.5C 148.365,164.417 149.365,164.251 150.5,165C 151.542,166.918 152.708,168.751 154,170.5C 155.394,168.612 156.56,166.612 157.5,164.5 Z"/></g>
<g><path style="opacity:1" fill="#414647" d="M 179.5,168.5 C 177.735,169.461 175.735,169.795 173.5,169.5C 173.5,170.833 173.5,172.167 173.5,173.5C 175.5,173.5 177.5,173.5 179.5,173.5C 177.735,174.461 175.735,174.795 173.5,174.5C 173.657,175.873 173.49,177.207 173,178.5C 172.502,175.183 172.335,171.85 172.5,168.5C 174.833,168.5 177.167,168.5 179.5,168.5 Z"/></g>
<g><path style="opacity:1" fill="#8c8f8f" d="M 179.5,168.5 C 179.833,168.5 180.167,168.5 180.5,168.5C 178.975,170.036 176.975,171.036 174.5,171.5C 176.291,172.17 177.958,172.837 179.5,173.5C 177.5,173.5 175.5,173.5 173.5,173.5C 173.5,172.167 173.5,170.833 173.5,169.5C 175.735,169.795 177.735,169.461 179.5,168.5 Z"/></g>
<g><path style="opacity:1" fill="#4f5455" d="M 170.5,176.5 C 168.947,179.254 166.614,180.087 163.5,179C 161.25,176.072 160.916,172.906 162.5,169.5C 168.771,167.429 171.438,169.762 170.5,176.5 Z"/></g>
<g><path style="opacity:1" fill="#545859" d="M 50.5,164.5 C 51.9778,164.238 53.3112,164.571 54.5,165.5C 56.1381,168.304 57.9715,170.971 60,173.5C 60.498,170.518 60.6646,167.518 60.5,164.5C 61.5,164.5 62.5,164.5 63.5,164.5C 63.5,169.5 63.5,174.5 63.5,179.5C 61.6096,179.703 60.1096,179.037 59,177.5C 57.3333,174.833 55.6667,172.167 54,169.5C 53.5017,172.817 53.335,176.15 53.5,179.5C 52.5,179.5 51.5,179.5 50.5,179.5C 50.5,174.5 50.5,169.5 50.5,164.5 Z"/></g>
<g><path style="opacity:1" fill="#afb1b1" d="M 68.5,179.5 C 67.8333,159.5 67.1667,159.5 66.5,179.5C 65.5119,174.36 65.1786,169.026 65.5,163.5C 66.8333,163.5 68.1667,163.5 69.5,163.5C 69.8214,169.026 69.4881,174.36 68.5,179.5 Z"/></g>
<g><path style="opacity:1" fill="#494d4e" d="M 68.5,179.5 C 67.8333,179.5 67.1667,179.5 66.5,179.5C 67.1667,159.5 67.8333,159.5 68.5,179.5 Z"/></g>
<g><path style="opacity:1" fill="#f1f1f1" d="M 164.5,169.5 C 165.822,169.33 166.989,169.663 168,170.5C 168.667,172.5 168.667,174.5 168,176.5C 166.667,177.833 165.333,177.833 164,176.5C 163.297,174.071 163.463,171.738 164.5,169.5 Z"/></g>
<g><path style="opacity:1" fill="#535758" d="M 71.5,164.5 C 72.5,164.5 73.5,164.5 74.5,164.5C 76.0125,176.996 78.1792,177.329 81,165.5C 82.1562,164.007 82.9896,164.174 83.5,166C 81.8562,170.429 80.5229,174.929 79.5,179.5C 78.1667,179.5 76.8333,179.5 75.5,179.5C 74.1667,174.5 72.8333,169.5 71.5,164.5 Z"/></g>
<g><path style="opacity:1" fill="#535758" d="M 117.5,163.5 C 120.99,163.245 123.657,164.578 125.5,167.5C 125,167.833 124.5,168.167 124,168.5C 121.79,166.889 119.29,166.222 116.5,166.5C 116.33,167.822 116.663,168.989 117.5,170C 123.467,169.299 125.967,171.799 125,177.5C 121.333,180.167 117.667,180.167 114,177.5C 113.517,176.552 113.351,175.552 113.5,174.5C 115.668,175.179 117.668,176.179 119.5,177.5C 122.396,176.976 123.063,175.476 121.5,173C 112.755,172.45 111.422,169.284 117.5,163.5 Z"/></g>
<g><path style="opacity:1" fill="#5c5f60" d="M 76.5,183.5 C 80.8333,183.5 85.1667,183.5 89.5,183.5C 89.5,184.5 89.5,185.5 89.5,186.5C 87.8333,186.5 86.1667,186.5 84.5,186.5C 84.5,190.833 84.5,195.167 84.5,199.5C 83.5,199.5 82.5,199.5 81.5,199.5C 81.5,195.167 81.5,190.833 81.5,186.5C 79.8333,186.5 78.1667,186.5 76.5,186.5C 76.5,185.5 76.5,184.5 76.5,183.5 Z"/></g>
<g><path style="opacity:1" fill="#55595a" d="M 159.5,198.5 C 157.869,194.768 156.869,190.768 156.5,186.5C 155.167,186.5 153.833,186.5 152.5,186.5C 152.5,185.5 152.5,184.5 152.5,183.5C 156.5,183.5 160.5,183.5 164.5,183.5C 164.5,184.5 164.5,185.5 164.5,186.5C 162.833,186.5 161.167,186.5 159.5,186.5C 159.5,190.5 159.5,194.5 159.5,198.5 Z"/></g>
<g><path style="opacity:1" fill="#515556" d="M 138.5,183.5 C 140.26,186.701 141.094,190.367 141,194.5C 142.67,196.698 144.67,197.032 147,195.5C 147.499,191.514 147.666,187.514 147.5,183.5C 148.5,183.5 149.5,183.5 150.5,183.5C 150.666,187.514 150.499,191.514 150,195.5C 146.74,200.285 143.073,200.619 139,196.5C 138.501,192.179 138.334,187.846 138.5,183.5 Z"/></g>
<g><path style="opacity:1" fill="#515556" d="M 166.5,183.5 C 168.308,184.918 168.975,186.918 168.5,189.5C 170.833,189.5 173.167,189.5 175.5,189.5C 175.5,187.5 175.5,185.5 175.5,183.5C 176.5,183.5 177.5,183.5 178.5,183.5C 178.5,188.5 178.5,193.5 178.5,198.5C 177.5,198.5 176.5,198.5 175.5,198.5C 175.5,196.5 175.5,194.5 175.5,192.5C 173.5,192.5 171.5,192.5 169.5,192.5C 168.835,194.369 168.169,196.369 167.5,198.5C 166.506,193.544 166.173,188.544 166.5,183.5 Z"/></g>
<g><path style="opacity:1" fill="#969899" d="M 156.5,186.5 C 156.869,190.768 157.869,194.768 159.5,198.5C 158.791,199.404 157.791,199.737 156.5,199.5C 156.5,195.167 156.5,190.833 156.5,186.5 Z"/></g>
<g><path style="opacity:1" fill="#55595a" d="M 126.5,183.5 C 135.13,183.628 137.964,187.961 135,196.5C 130.203,200.802 126.203,200.136 123,194.5C 121.662,189.96 122.829,186.293 126.5,183.5 Z"/></g>
<g><path style="opacity:1" fill="#ebebeb" d="M 128.5,185.5 C 133.078,186.843 134.578,189.843 133,194.5C 128.857,197.671 126.357,196.671 125.5,191.5C 125.467,188.898 126.467,186.898 128.5,185.5 Z"/></g>
<g><path style="opacity:1" fill="#585b5c" d="M 63.5,183.5 C 67.5839,183.043 71.4172,183.71 75,185.5C 75.8952,188.466 75.3952,191.133 73.5,193.5C 74.1667,194.833 74.8333,196.167 75.5,197.5C 75,197.833 74.5,198.167 74,198.5C 72.4801,197.303 71.3134,195.803 70.5,194C 69.2068,193.51 67.8734,193.343 66.5,193.5C 66.5,195.167 66.5,196.833 66.5,198.5C 65.5,198.5 64.5,198.5 63.5,198.5C 63.5,193.5 63.5,188.5 63.5,183.5 Z"/></g>
<g><path style="opacity:1" fill="#ededed" d="M 66.5,186.5 C 68.5273,186.338 70.5273,186.505 72.5,187C 73.8333,188 73.8333,189 72.5,190C 70.5273,190.495 68.5273,190.662 66.5,190.5C 66.5,189.167 66.5,187.833 66.5,186.5 Z"/></g>
<g><path style="opacity:1" fill="#545859" d="M 93.5,183.5 C 97.5393,182.66 100.539,183.993 102.5,187.5C 102,187.833 101.5,188.167 101,188.5C 99.2495,185.647 96.9161,184.98 94,186.5C 93.5172,187.448 93.3505,188.448 93.5,189.5C 96.6738,189.664 99.5071,190.664 102,192.5C 102.626,196.885 100.626,199.219 96,199.5C 92.4846,199.516 90.6513,197.85 90.5,194.5C 93.3356,195.776 96.3356,196.442 99.5,196.5C 99.67,195.178 99.3366,194.011 98.5,193C 92.5333,193.701 90.0333,191.201 91,185.5C 91.9947,184.934 92.828,184.267 93.5,183.5 Z"/></g>
<g><path style="opacity:1" fill="#545859" d="M 36.5,183.5 C 39.1873,183.336 41.854,183.503 44.5,184C 46.3031,184.637 47.6364,185.803 48.5,187.5C 52.3598,182.715 56.5265,182.382 61,186.5C 61.6667,189.833 61.6667,193.167 61,196.5C 53.6888,201.58 49.3555,199.58 48,190.5C 45.8038,193.125 42.9705,194.125 39.5,193.5C 38.8365,195.042 38.1698,196.709 37.5,198.5C 36.5059,193.544 36.1725,188.544 36.5,183.5 Z"/></g>
<g><path style="opacity:1" fill="#dfe0e0" d="M 38.5,185.5 C 43.6673,184.492 45.334,186.325 43.5,191C 41.8659,191.494 40.1992,191.66 38.5,191.5C 38.5,189.5 38.5,187.5 38.5,185.5 Z"/></g>
<g><path style="opacity:1" fill="#efefef" d="M 54.5,185.5 C 57.7658,186.114 59.0991,188.114 58.5,191.5C 58.3451,196.75 56.1785,197.75 52,194.5C 50.7795,190.718 51.6128,187.718 54.5,185.5 Z"/></g>
<g><path style="opacity:1" fill="#898b8c" d="M 105.5,183.5 C 104.892,188.944 105.558,193.944 107.5,198.5C 106.791,199.404 105.791,199.737 104.5,199.5C 104.179,193.974 104.512,188.64 105.5,183.5 Z"/></g>
<g><path style="opacity:1" fill="#a9aaac" d="M 36.5,183.5 C 36.1725,188.544 36.5059,193.544 37.5,198.5C 38.1698,196.709 38.8365,195.042 39.5,193.5C 39.5,195.5 39.5,197.5 39.5,199.5C 38.1667,199.5 36.8333,199.5 35.5,199.5C 35.1786,193.974 35.5119,188.64 36.5,183.5 Z"/></g>
<g><path style="opacity:1" fill="#a9aaac" d="M 166.5,183.5 C 166.173,188.544 166.506,193.544 167.5,198.5C 168.169,196.369 168.835,194.369 169.5,192.5C 169.5,194.833 169.5,197.167 169.5,199.5C 168.167,199.5 166.833,199.5 165.5,199.5C 165.179,193.974 165.512,188.64 166.5,183.5 Z"/></g>
<g><path style="opacity:1" fill="#505455" d="M 105.5,183.5 C 106.822,183.33 107.989,183.663 109,184.5C 110.139,187.583 111.472,190.583 113,193.5C 114.591,190.648 115.924,187.648 117,184.5C 118.011,183.663 119.178,183.33 120.5,183.5C 120.827,188.544 120.494,193.544 119.5,198.5C 118.774,186.855 117.107,186.855 114.5,198.5C 113.325,198.719 112.325,198.386 111.5,197.5C 110.333,194.5 109.167,191.5 108,188.5C 107.502,191.817 107.335,195.15 107.5,198.5C 105.558,193.944 104.892,188.944 105.5,183.5 Z"/></g>
</svg>
